<svg
  xmlns="http://www.w3.org/2000/svg"
  viewBox="0 0 200 200"
  fill="none"
>
  <!-- Chef Hat -->
  <path
    d="M50 70C50 50 80 40 100 40C120 40 150 50 150 70C150 80 140 90 130 90H70C60 90 50 80 50 70Z"
    fill="#FF6347"
  />
  <path
    d="M70 90V130H130V90"
    stroke="#FFFFFF"
    stroke-width="5"
    fill="#FF6347"
  />

  <!-- Notebook -->
  <rect
    x="80"
    y="120"
    width="40"
    height="50"
    fill="#FFFFFF"
    stroke="#FFA500"
    stroke-width="2"
    rx="5"
  />
  <line x1="85" y1="130" x2="115" y2="130" stroke="#FFA500" stroke-width="2" />
  <line x1="85" y1="140" x2="115" y2="140" stroke="#FFA500" stroke-width="2" />
  <line x1="85" y1="150" x2="115" y2="150" stroke="#FFA500" stroke-width="2" />

  <!-- Utensils -->
  <path
    d="M60 140V150"
    stroke="#32CD32"
    stroke-width="4"
    stroke-linecap="round"
  />
  <path
    d="M140 140V150"
    stroke="#32CD32"
    stroke-width="4"
    stroke-linecap="round"
  />
  <circle cx="60" cy="140" r="4" fill="#32CD32" />
  <circle cx="140" cy="140" r="4" fill="#32CD32" />
</svg>
