<?xml version="1.0" encoding="utf-8"?>
<!-- Generator: Adobe Illustrator 22.1.0, SVG Export Plug-In . SVG Version: 6.00 Build 0)  -->
<svg version="1.1" id="Layer_1" xmlns="http://www.w3.org/2000/svg" xmlns:xlink="http://www.w3.org/1999/xlink" x="0px" y="0px"
	 viewBox="0 0 500 500" style="enable-background:new 0 0 500 500;" xml:space="preserve">
<style type="text/css">
	.st0{fill:#87C108;}
	.st1{fill:#D9D9D9;}
	.st2{fill:#575757;}
	.st3{fill:#BFA33C;}
	.st4{fill:#857029;}
	.st5{fill:#DDBC45;}
	.st6{fill:#F9C300;}
	.st7{fill:#A18932;}
	.st8{fill:#EDEDED;}
	.st9{fill:#525252;}
	.st10{opacity:0.3;enable-background:new    ;}
	.st11{fill:#806640;}
	.st12{fill:#D9B383;}
	.st13{fill:#E6E6E6;}
	.st14{fill:#ADADAD;}
	.st15{fill:#898989;}
	.st16{fill:#FFFFFF;}
	.st17{fill:#BFBFBF;}
	.st18{fill:#CCCCCC;}
	.st19{fill:#3AB500;}
	.st20{fill:#E0E0E0;}
	.st21{fill:#DCDCDC;}
	.st22{fill:#30C205;}
	.st23{fill:#45F212;}
	.st24{fill:#46FB12;}
	.st25{fill:#5C5C5C;}
	.st26{fill:#808080;}
	.st27{fill:#9F9F9F;}
	.st28{fill:#696969;}
	.st29{clip-path:url(#SVGID_2_);}
	.st30{fill:#2CC200;}
	.st31{fill:#3CFF01;}
	.st32{fill:#32CF03;}
	.st33{fill:#4FFF1B;}
	.st34{fill:#6EFF42;}
	.st35{fill:#717171;}
	.st36{fill:#676767;}
	.st37{fill:#757575;}
	.st38{fill:#646464;}
	.st39{fill:#464646;}
	.st40{fill:#999999;}
	.st41{fill:#7E7E7E;}
	.st42{fill:#AD835F;}
	.st43{fill:#4D4D4D;}
	.st44{fill:#806046;}
	.st45{fill:#737373;}
	.st46{opacity:0.3;}
	.st47{fill:#947051;}
	.st48{fill:#BD8F66;}
	.st49{fill:#BF9169;}
	.st50{fill:#70553D;}
	.st51{fill:#6E533C;}
	.st52{opacity:0.5;fill:#AFD6D2;enable-background:new    ;}
	.st53{fill:#E5C34C;}
	.st54{fill:#BFA23F;}
	.st55{fill:#DEBD49;}
	.st56{fill:#4A3828;}
	.st57{fill:#262626;}
</style>
<title>Artboard 1 copy 3</title>
<rect x="0.7" class="st0" width="500" height="500"/>
<polygon class="st1" points="429.6,324.2 391.4,302.1 376.1,310.9 414.3,332.9 "/>
<g>
	<path class="st2" d="M428.7,324.2c-0.1-0.1-0.2-0.2-0.3-0.2l-36.6-21.3c0.1,0.1,0.2,0.1,0.3,0.2l0,0L428.7,324.2L428.7,324.2z"/>
	<path class="st3" d="M392.2,302c-0.7-0.4-1.9-0.1-3.2,0.7l0,0l0,0c-1.8,1.1-3.4,2.3-5,3.7c-2.5,2.1-0.7,0.5-3.7,3.1
		c-2.3,2.1-4.8,4.1-7.4,5.8c-0.7,0.5-1.6,0.8-2.5,0.8h-0.1c-0.1,0.1-0.2,0.2-0.2,0.3c0,0.1,0,0.1,0,0.2s0,0.1,0.1,0.2l36.6,21.3
		c-0.1,0-0.1-0.1-0.1-0.2s0-0.1,0-0.2s0.1-0.2,0.2-0.3h0.1c0.9,0,1.8-0.3,2.5-0.8c2.6-1.7,5.1-3.7,7.4-5.8c3-2.6,1.2-1,3.7-3.1
		c1.6-1.4,3.2-2.6,5-3.7l0,0l0,0c1.4-0.8,2.5-1.1,3.2-0.7L392.2,302z"/>
	<path class="st4" d="M425.6,324c1.6-0.9,2.9-1.2,3.6-0.4c0,0,0,0.1,0,0.2s-0.1,0.2-0.1,0.3c0,0,0,0.1-0.1,0.1c0,0-0.1,0-0.1,0.1
		c-0.1,0.1-0.2,0.1-0.2,0c-0.6-0.7-1.7-0.3-3.1,0.5c-1.7,1.1-3.3,2.3-4.9,3.6c-2.5,2.1-0.7,0.5-3.7,3.1c-2.4,2.2-4.9,4.2-7.6,5.9
		c-0.8,0.6-1.8,0.9-2.8,0.9c-0.1,0-0.1-0.1-0.1-0.2s0-0.1,0-0.2s0.1-0.2,0.2-0.3h0.1c0.9,0,1.8-0.3,2.5-0.8c2.6-1.7,5.1-3.7,7.4-5.8
		c3-2.6,1.2-1,3.7-3.1C422.1,326.4,423.8,325.1,425.6,324z"/>
</g>
<path class="st1" d="M388.2,304.4l-5.5,3.2c-0.5,0.4-0.3,0.2-2.4,2c-2.3,2.1-4.8,4.1-7.4,5.8c-0.7,0.5-1.6,0.8-2.5,0.8h-0.1
	c-0.1,0.1-0.2,0.2-0.2,0.3c0,0.1,0,0.1,0,0.2l36.5,21.1l0.2-0.1l0.1-0.1h0.1l6.5-3.7c1-0.8,2.2-1.8,3.5-2.9c3-2.6,1.2-1,3.7-3.1
	c1.1-1,2.3-1.9,3.4-2.7L388.2,304.4z"/>
<polygon class="st1" points="421.3,328.7 384.4,307.4 369.7,315.7 406.7,337 "/>
<g>
	<path class="st5" d="M390.7,293.1L390.7,293.1c-0.1,0-0.2,0-0.2,0l36.6,21.3c0,0,0.1,0,0.2,0l0,0L390.7,293.1z"/>
	<path class="st6" d="M390.5,293.1c-0.1,0.1-0.2,0.2-0.2,0.3c-1.2,2.8-4.2,5.4-9.3,9.6c-3.1,2.5-1.2,1.1-3.7,3.1
		c-3.5,2.9-7.1,6.3-7.4,9.3c0,0.1,0,0.1,0.1,0.2l36.6,21.3c-0.1,0-0.1-0.1-0.1-0.2c0.3-3,3.9-6.4,7.4-9.3c2.5-2.1,0.7-0.6,3.7-3.1
		c5.1-4.2,8-6.8,9.3-9.6c0-0.1,0.1-0.2,0.2-0.3L390.5,293.1z"/>
	<path class="st7" d="M427.1,314.4c0,0,0.1,0,0.2,0s0.1,0.1,0.1,0.2s0,0.1,0,0.2c-1.4,3.1-4.4,5.7-9.6,10.1
		c-3.1,2.5-1.2,1.1-3.7,3.1c-3.1,2.6-6.7,5.9-6.9,8.5c0,0.2-0.1,0.3-0.2,0.4c-0.2,0.1-0.3,0-0.3-0.1c0.3-3,3.9-6.4,7.4-9.3
		c2.5-2.1,0.7-0.6,3.7-3.1c5.1-4.2,8-6.8,9.3-9.6C427,314.5,427,314.4,427.1,314.4z"/>
</g>
<path class="st8" d="M388.3,296.4c-0.8,0.9-1.7,1.8-2.7,2.7l36.8,21.2c0.9-0.8,1.8-1.7,2.6-2.7L388.3,296.4z"/>
<path class="st9" d="M371.8,311.5L371.8,311.5c-1,1.1-1.6,2.5-1.9,3.9c0,0.1,0,0.1,0.1,0.2l36.6,21.3c-0.1,0-0.1-0.1-0.1-0.2
	c0.3-1.5,0.9-2.9,2-4L371.8,311.5z"/>
<g>
	<path class="st10" d="M261.8,421.7c-2.1,0-4.1-0.5-5.9-1.4l-100.7-58.1c-2.4-1-3.6-3.8-2.6-6.2c0.5-1.2,1.4-2.1,2.6-2.6l161.9-94.1
		c3.7-1.9,8.1-1.9,11.9,0l100.6,58c2.4,1,3.6,3.8,2.6,6.2c-0.5,1.2-1.4,2.1-2.6,2.6l-161.9,94.1
		C265.9,421.2,263.9,421.7,261.8,421.7z"/>
	<g>
		<path class="st11" d="M428.8,320.6l-161.9,94.1c-3.2,1.6-7,1.6-10.2,0L156,356.6c-1.2-0.5-2-1.7-2.1-3v2.7c0.1,1.3,0.9,2.4,2.1,3
			l100.7,58.1c3.2,1.6,7,1.6,10.2,0l0,0l161.9-94.1c1.2-0.5,2-1.6,2.1-2.9v-2.7C430.8,319,430,320.1,428.8,320.6z"/>
		<path class="st12" d="M428.8,314.7c2.8,1.6,2.8,4.3,0,5.9l-161.9,94.1c-3.2,1.6-7,1.6-10.2,0L156,356.6c-2.8-1.6-2.8-4.3,0-5.9
			l161.9-94.1c3.2-1.6,7-1.6,10.2,0L428.8,314.7z"/>
	</g>
	<polygon class="st13" points="427.1,318.8 323.5,258.5 160,353 263.6,413.2 	"/>
	<polygon class="st14" points="161.8,351.8 161.8,352.5 263.6,411.7 263.6,410.9 	"/>
	<polygon class="st15" points="263.6,410.9 263.6,411.7 425.6,318.2 425.6,317.4 	"/>
	<polygon class="st16" points="161.8,351.8 263.6,410.9 425.6,317.4 323.8,258.3 	"/>
	<g>
		<path class="st17" d="M306.8,370.7c0.5,0.2,0.8,0.8,0.6,1.3c-0.1,0.3-0.3,0.5-0.6,0.6c-1.1,0.5-2.3,0.5-3.4,0L239.9,336
			c-0.5-0.2-0.8-0.8-0.6-1.3c0.1-0.3,0.3-0.5,0.6-0.6c1.1-0.5,2.3-0.5,3.4,0L306.8,370.7z"/>
		<path class="st17" d="M287.1,382.1c0.5,0.2,0.8,0.8,0.6,1.3c-0.1,0.3-0.3,0.5-0.6,0.6c-1.1,0.5-2.3,0.5-3.4,0l-63.5-36.6
			c-0.5-0.2-0.8-0.8-0.6-1.3c0.1-0.3,0.3-0.5,0.6-0.6c1.1-0.5,2.3-0.5,3.4,0L287.1,382.1z"/>
		<path class="st17" d="M326.6,359.2c0.5,0.2,0.8,0.8,0.6,1.3c-0.1,0.3-0.3,0.5-0.6,0.6c-1.1,0.5-2.3,0.5-3.4,0l-63.4-36.6
			c-0.5-0.2-0.8-0.8-0.6-1.3c0.1-0.3,0.3-0.5,0.6-0.6c1.1-0.5,2.3-0.5,3.4,0L326.6,359.2z"/>
		<path class="st17" d="M346.3,347.7c0.5,0.2,0.8,0.8,0.6,1.3c-0.1,0.3-0.3,0.5-0.6,0.6c-1.1,0.5-2.3,0.5-3.4,0L279.4,313
			c-0.5-0.2-0.8-0.8-0.6-1.3c0.1-0.3,0.3-0.5,0.6-0.6c1.1-0.5,2.3-0.5,3.4,0L346.3,347.7z"/>
		<path class="st17" d="M366,336.3c0.5,0.2,0.8,0.8,0.6,1.3c-0.1,0.3-0.3,0.5-0.6,0.6c-1.1,0.5-2.3,0.5-3.4,0l-63.5-36.6
			c-0.5-0.2-0.8-0.8-0.6-1.3c0.1-0.3,0.3-0.5,0.6-0.6c1.1-0.5,2.3-0.5,3.4,0L366,336.3z"/>
		<path class="st18" d="M288.6,288.6l8.6,4.9l-8.5,4.9l-8.6-4.9L288.6,288.6z M288.7,296.7l5.5-3.2l-5.5-3.2l-5.5,3.2L288.7,296.7z"
			/>
		<path class="st18" d="M268.9,300.1l8.6,4.9l-8.5,4.9l-8.6-4.9L268.9,300.1z M268.9,308.2l5.5-3.2l-5.5-3.2l-5.5,3.2L268.9,308.2z"
			/>
		<path class="st18" d="M249.2,311.5l8.6,4.9l-8.5,4.9l-8.6-4.9L249.2,311.5z M249.2,319.6l5.5-3.2l-5.5-3.2l-5.5,3.2L249.2,319.6z"
			/>
		<path class="st18" d="M229.4,323l8.6,4.9l-8.5,4.9l-8.6-4.9L229.4,323z M229.5,331.1l5.5-3.2l-5.5-3.2l-5.5,3.2L229.5,331.1
			L229.5,331.1z"/>
		<path class="st18" d="M209.7,334.4l8.6,4.9l-8.5,5l-8.6-4.9L209.7,334.4z M209.7,342.6l5.5-3.2l-5.5-3.2l-5.5,3.2L209.7,342.6
			L209.7,342.6z"/>
	</g>
	<polygon class="st19" points="301.4,293.5 301.4,295.2 286.1,295.2 286,288.5 289,288.5 289,293.5 	"/>
	<polygon class="st19" points="282.6,305.1 282.6,306.8 267.2,306.8 267.2,300 270.1,300 270.1,305.1 	"/>
	<polygon class="st19" points="262.9,316.2 262.9,317.9 247.5,317.9 247.4,311.2 250.4,311.2 250.4,316.2 	"/>
	<polygon class="st19" points="243.1,327.6 243.1,329.3 227.8,329.3 227.7,322.6 230.7,322.6 230.7,327.6 	"/>
	<g>
		<polygon class="st20" points="387.5,316.5 375.8,323.3 310.9,285.8 322.6,279 		"/>
	</g>
	<g>
		<path class="st21" d="M292.4,345.8c0.2,0.1,0.4,0.3,0.3,0.6c0,0.1-0.1,0.2-0.3,0.3l-47.8,27.8l-11.1-6.4l47.8-27.8
			c0.5-0.2,1-0.2,1.5,0L292.4,345.8z"/>
		<path class="st21" d="M232.2,367.1l11.8,6.8c-0.9,0.5-6.7,1.4-8.1,1.7c-3.1,0.8-6.1,2.1-8.8,3.8l-0.7-0.4l-2.7,1.5l-3-1.8l2.7-1.5
			l-0.7-0.4c4.4-2.6,6.1-4.4,6.5-5.1C229.8,371,231.3,367.7,232.2,367.1z"/>
		<path class="st21" d="M292.4,343.7c0.3,0.1,0.4,0.4,0.3,0.6c0,0.1-0.2,0.3-0.3,0.3l-12.3,7.1c-0.5,0.3-1.1,0.3-1.6,0l-7.3-4.2
			c-0.3-0.1-0.4-0.4-0.3-0.6c0-0.1,0.2-0.3,0.3-0.3l12.3-7.1c0.5-0.3,1.1-0.3,1.6,0L292.4,343.7z"/>
	</g>
	<path class="st22" d="M292.4,340.1L292.4,340.1l-4.6,2.7v2.5l4.6-2.7l0,0l-4.6,2.7c0,0.3-0.1,0.5-0.3,0.7l4.6-2.7c0,0,0,0,0.1-0.1
		l0.1-0.1l0.1-0.1c0.1-0.1,0.2-0.2,0.2-0.3c0-0.1,0.1-0.1,0.1-0.2s0.1-0.2,0.1-0.3c0-0.1,0-0.1,0-0.2s0-0.2,0-0.3l0,0v-0.3v-0.3
		v-0.3v-0.3v-0.3v-0.3v-0.3v-0.3V339v-0.3C292.9,339.6,292.7,339.9,292.4,340.1z"/>
	<path class="st23" d="M292.3,338.2l-0.9-0.5l-0.9-0.5l-0.9-0.5l-0.9-0.5l-0.9-0.5l-0.9-0.5l-0.9-0.5l-0.9-0.5l-1.3-0.9l-0.9-0.5
		l0,0l0,0l0,0l0,0c-0.1-0.1-0.3-0.1-0.5-0.2c-0.1,0-0.2,0-0.3-0.1c-0.1,0-0.1,0-0.2,0s-0.3,0-0.4,0.1c-0.1,0-0.2,0.1-0.2,0.1
		s-0.1,0.1-0.2,0.1l0,0l-4.6,2.7c0.2-0.1,0.5-0.1,0.8,0.1l9.4,5.4l4.6-2.7l0,0C291.6,338,292,338,292.3,338.2z M282,332.7
		c0.2-0.1,0.3-0.1,0.5-0.1C282.4,332.6,282.2,332.7,282,332.7z M281.9,332.8c0,0,0.1,0,0.1-0.1C282,332.8,282,332.8,281.9,332.8
		L281.9,332.8z M282.8,332.7C282.7,332.7,282.7,332.7,282.8,332.7C282.7,332.7,282.7,332.7,282.8,332.7L282.8,332.7z M282.7,332.7
		h-0.1C282.6,332.7,282.6,332.7,282.7,332.7L282.7,332.7z"/>
	<path class="st24" d="M292.9,339.3c0-0.2,0-0.4-0.1-0.6c0-0.1-0.1-0.1-0.2-0.2s-0.2-0.2-0.3-0.2c-0.3-0.2-0.7-0.2-1,0l0,0l-4.6,2.7
		c0.6,0.4,1,1.1,1.1,1.8l4.6-2.7l0,0C292.7,339.9,292.9,339.6,292.9,339.3z"/>
	<path class="st25" d="M290.6,345.4l-46.3,26.9c0.3-0.2,0.4-0.5,0.4-0.9l46.3-26.9C291,344.9,290.9,345.2,290.6,345.4z"/>
	<polygon class="st25" points="244.7,367.7 291,340.8 291,344.5 244.7,371.4 	"/>
	<path class="st26" d="M279.2,332.4c-0.3-0.2-0.7-0.2-1-0.1l-46.3,26.9c0.3-0.2,0.7-0.1,1,0.1l10.4,6l46.3-26.9L279.2,332.4z"/>
	<path class="st27" d="M243.3,365.3l46.3-26.9c0.8,0.5,1.3,1.4,1.4,2.4l-46.3,26.9C244.7,366.7,244.1,365.8,243.3,365.3z"/>
	<path class="st28" d="M243.3,365.3c0.8,0.5,1.3,1.4,1.4,2.4v3.7c0,0.9-0.6,1.2-1.4,0.8l-10.4-6c-0.8-0.5-1.3-1.4-1.4-2.4v-3.7
		c0-0.9,0.6-1.2,1.4-0.8L243.3,365.3z"/>
	<g>
		<g>
			<defs>
				<path id="SVGID_1_" d="M225.8,380.1l-6.7-11.8c0,0,9.4-6.4,13-7.7c1.6-0.6,3.7,0.8,5.8,2c2.5,1.4,5.1,3.1,5.8,5
					c0.6,1.5,0.9,3.4-0.1,3.9c-1.9,1.7-6.8,1.9-10.2,1.9C231.1,374.4,225.8,380.1,225.8,380.1z"/>
			</defs>
			<clipPath id="SVGID_2_">
				<use xlink:href="#SVGID_1_"  style="overflow:visible;"/>
			</clipPath>
			<g class="st29">
				<path class="st30" d="M235.8,370.8c-3.1,0.8-6,2.1-8.8,3.8c0.1,0.6-0.2,1.1-0.6,1.4c0.2-0.1,0.4-0.2,0.6-0.3
					c0.8-0.4,0.9-0.5,1.2-0.6c0.5-0.3,0.6-0.3,1.1-0.5s0.9-0.4,1-0.4c0.6-0.2,0.6-0.2,0.9-0.3c0.3-0.1,0.7-0.2,1.1-0.3
					c0.5-0.1,1-0.2,1.5-0.3c0.3,0,0.4,0,1.4,0.1c1.1,0.1,1.7,0.1,2,0.2c0.4,0,1.4,0.1,2.2,0.1c0.9,0,1.9-0.2,2.7-0.6
					c1.1-0.6,1.7-2,1.7-3.9C242.9,369.6,237.2,370.5,235.8,370.8z"/>
				<path class="st31" d="M243.8,369c-0.3-4.1-2.5-7.9-6-10.1c-1.2-0.8-2.8-1-4.1-0.3c-0.1,0.1-0.2,0.1-0.3,0.2
					c-0.2,0.2-0.4,0.4-0.6,0.6c-0.3,0.4-0.6,0.8-0.9,1.2c-0.7,1.2-1.3,2.5-1.9,3.8c-0.3,0.7-0.5,1-0.6,1.3c0.1-0.1,0.1-0.2,0.2-0.3
					c-0.1,0.1-0.2,0.2-0.2,0.3c-0.3,0.4-0.6,0.8-1,1.2c-0.3,0.3-0.6,0.6-0.8,0.8c-0.2,0.2-0.3,0.3-0.7,0.6c-0.1,0-0.4,0.4-0.9,0.7
					c-0.4,0.3-0.5,0.4-1,0.7c-0.5,0.3-1.1,0.7-1.8,1.1c0.5-0.2,1.1-0.2,1.5,0.1c1.3,0.8,2.1,2.2,2.2,3.7c2.7-1.7,5.7-3,8.8-3.8l0,0
					C237.2,370.5,242.9,369.6,243.8,369z"/>
				<path class="st32" d="M227,374.6c0,1.4-0.9,2-2.2,1.3c-1.3-0.8-2.1-2.2-2.2-3.7c0-1.4,0.9-2,2.2-1.3S226.9,373,227,374.6z"/>
			</g>
		</g>
	</g>
	<path class="st33" d="M224.7,371.6c-0.3-0.2-0.8-0.3-1.2-0.1l-3.3,2.6c1.2,0.6,2.3,1.2,3.3,2c0.6-0.2,2.3-0.6,2.3-0.6
		c0.3-0.2,0.5-0.6,0.5-1.1C226.3,373.2,225.7,372.2,224.7,371.6z"/>
	<path class="st34" d="M221.9,374.8c0.6,0.3,1.2,0.7,1.7,1.2c0,0.1-0.7-0.2-1.7-0.7c-0.6-0.3-1.2-0.7-1.7-1.2
		C220.3,374,221,374.3,221.9,374.8z"/>
	<g>
		<path class="st21" d="M264.8,382.1c-0.3,0.1-0.4,0.4-0.3,0.7c0.1,0.2,0.2,0.3,0.3,0.3l10.8,6.3c0.5,0.3,1.2,0.3,1.7,0l16.3-9.4
			l-12.5-7.3L264.8,382.1z"/>
	</g>
	<path class="st26" d="M280.8,367l-15.7,9.1c0.3-0.1,0.7-0.1,0.9,0.1l15.7-9.1C281.5,366.9,281.1,366.9,280.8,367z"/>
	<path class="st35" d="M276.6,388.4l15.7-9.1c0.3-0.2,0.4-0.5,0.4-0.8l-15.7,9.1C277,387.9,276.9,388.2,276.6,388.4z"/>
	<polygon class="st35" points="277,387.5 292.8,378.4 292.8,374.9 277,384.1 	"/>
	<polygon class="st26" points="275.7,381.8 291.5,372.7 281.8,367.1 266,376.2 	"/>
	<g>
		<polygon class="st1" points="274.1,381 286.8,372.8 279.8,368.7 268.3,377.7 		"/>
	</g>
	<path class="st36" d="M266,376.2c-0.7-0.4-1.3-0.1-1.3,0.7v3.4c0,0.9,0.5,1.7,1.3,2.2l9.7,5.6c0.7,0.4,1.3,0.1,1.3-0.7V384
		c0-0.9-0.5-1.7-1.3-2.2L266,376.2z"/>
	<polygon class="st37" points="274.1,379.6 267.6,375.9 267.6,377.1 274.1,380.9 	"/>
	<path class="st38" d="M286.3,371.6l-6.5-3.8c-0.1,0-0.1,0-0.2,0c-3.7,2.1-7.2,3.9-10.4,5.4c0,0-0.1,0-0.1,0.1l6.5,3.8l0.1-0.1
		c3.2-1.5,6.7-3.3,10.4-5.4C286.2,371.6,286.2,371.6,286.3,371.6z"/>
	<path class="st35" d="M275.6,377.1l-6.5-3.8c-0.4,0.3-0.7,0.6-1,1c-0.3,0.5-0.5,1-0.5,1.5l6.5,3.8c0-0.5,0.2-1.1,0.5-1.5
		C274.8,377.7,275.2,377.4,275.6,377.1z"/>
	<path class="st39" d="M274.6,378.1c0.2-0.4,0.6-0.8,1-1l0.1-0.1c3.2-1.5,6.7-3.3,10.4-5.4c0.2-0.1,0.3,0,0.3,0.2s-0.1,0.4-0.3,0.5
		c-3.7,2.1-7.2,3.9-10.5,5.4h-0.1c-0.3,0.2-0.5,0.4-0.6,0.6c-0.2,0.3-0.3,0.6-0.3,1v1.3l-0.6,0.3v-1.3
		C274.1,379.1,274.3,378.6,274.6,378.1z"/>
	<path class="st40" d="M264.4,380.5v-0.3v-0.3v-0.3v-0.3V379v-0.3v-0.3v-0.3v-0.3l0,0c0-0.1,0-0.3,0.1-0.4c0-0.1,0.1-0.2,0.1-0.3
		c0.1-0.1,0.2-0.3,0.3-0.4l0.1-0.1c0.1,0,0.1-0.1,0.2-0.1c0.3-0.1,0.7-0.1,0.9,0.1l9.7,5.6l15.7-9.1c0.8,0.5,1.2,1.3,1.3,2.2
		l-15.7,9.1l0,0c-0.1,0.1-0.2,0.1-0.3,0.1c0.1,0,0.2-0.1,0.3-0.1v3.4c0,0.3-0.1,0.6-0.4,0.8c-0.2,0.1-0.5,0.2-0.7,0.2
		c-0.1,0-0.3,0-0.4-0.1c-0.1,0-0.2-0.1-0.3-0.2l0,0l-1-0.6l-1-0.6l-1-0.6l-1-0.6l-1-0.6l-1-0.6l-1-0.6l-1-0.6l-1-0.6l-1-0.6l0,0
		c-0.3-0.2-0.6-0.5-0.8-0.8c-0.1-0.2-0.2-0.3-0.2-0.5c-0.1-0.2-0.1-0.4-0.1-0.6l0,0l0,0L264.4,380.5z"/>
	<path class="st41" d="M265.2,377.8c-0.2-0.1-0.4,0-0.4,0.2c0,1.1,0,2.3,0,3.4c0,0.3,0.1,0.5,0.4,0.6c3.2,1.9,6.5,3.7,9.7,5.6
		c0.2,0.1,0.4,0,0.4-0.2c0-1.1,0-2.3,0-3.4c0-0.3-0.1-0.5-0.4-0.6C271.7,381.5,268.4,379.7,265.2,377.8z"/>
</g>
<path class="st42" d="M227.5,70.4c0.5-0.2,0.9-0.4,1.1-0.5C228.3,70.1,227.9,70.2,227.5,70.4z"/>
<path class="st43" d="M164,235.4c-0.6-1-1.3-2-2.1-2.9c-1-1.1-2-2-3.1-2.9c-1.3-1-2.7-1.9-4.2-2.8c0.8,0.4,1.8,0.3,2.5-0.3
	c9.1,5.1,13.6,11.9,13.7,18.7c0,4.8-2.2,9.5-6.7,13.7c-2.4-0.9-4.1-3.1-4.3-5.7c4-3.7,5.9-8,5.9-12.2c0-1-0.2-2-0.4-2.9
	C164.9,237.2,164.5,236.3,164,235.4z"/>
<g>
	<g>
		<path class="st21" d="M172.9,234.5c-1.4,0.8-1.4,2.1,0,2.9c1.6,0.8,3.4,0.8,4.9,0c1.4-0.8,1.4-2.1,0-2.9
			C176.3,233.8,174.5,233.8,172.9,234.5z"/>
	</g>
</g>
<path class="st44" d="M178.2,235.6l-0.4-145.9c0,0.5-0.3,0.9-0.8,1.1c-1.3,0.7-2.7,0.7-4,0c-0.5-0.2-0.8-0.7-0.9-1.2l0.4,145.9
	c0.1,0.5,0.4,1,0.9,1.2c1.3,0.6,2.8,0.6,4,0C177.8,236.6,178.1,236.1,178.2,235.6z"/>
<path class="st17" d="M177.8,120.2v4.7c-0.5,2.6-3.6,4.7-5.7,3.9v-3.7C174.2,123.6,176.1,122,177.8,120.2z"/>
<path class="st43" d="M174.8,91.3c0.7,0,1.5-0.1,2.1-0.5c0.1,0,0.2-0.1,0.2-0.2v146.2c-0.7,0.3-1.6,0.5-2.4,0.4L174.8,91.3
	L174.8,91.3z"/>
<g>
	<path class="st45" d="M147.4,243.1C147.3,243.1,147.3,243.1,147.4,243.1L147.4,243.1z"/>
	<path class="st45" d="M146.8,243.6L146.8,243.6L146.8,243.6z"/>
	<path class="st45" d="M146.8,243.6c0.2-0.1,0.3-0.3,0.5-0.4C147.2,243.3,147,243.4,146.8,243.6L146.8,243.6z"/>
</g>
<path class="st21" d="M158.1,218.7c0-0.3,0-0.7,0-1.1c0,0.3,0,0.6,0,0.9c0,0.9-0.1,1.9-0.4,2.8c0-0.3,0.1-0.5,0.1-0.8
	C158,220,158.1,219.2,158.1,218.7z"/>
<g>
	<path class="st45" d="M141.7,164.9c0.8-0.6,1.9-1.5,2.7-2.2c2.2-2,2.5-2.3,4-3.8c1.4-1.5,2.7-3,3.9-4.6c1.3-1.7,2.4-3.5,3.4-5.4
		c1-2,1.9-4.1,2.5-6.3c0.6-2.3,1-4.6,1.1-6.9c0-1.8,0-3.6-0.3-5.3c-0.4-3.5-1.4-6.9-2.8-10.1c-1.4-3.3-3.4-6.3-5.7-8.9
		c-1.3-1.4-2.6-2.7-4.1-3.9c-1.5-1.2-3.1-2.3-4.8-3.3c-2.2-1.2-4.7-1.7-7.2-1.5c4.8,2.7,5.2,7,1.3,10
		C136.9,113.9,168.4,143.9,141.7,164.9L141.7,164.9z"/>
</g>
<g>
	<g class="st46">
		<ellipse transform="matrix(1 -2.834885e-03 2.834885e-03 1 -0.7334 0.4123)" cx="145.1" cy="258.9" rx="62.4" ry="36.2"/>
	</g>
	<path class="st47" d="M185.6,225.7c-22.8-12.8-59.2-12.4-81.3,0.8s-21.6,34.3,1.2,47.1s59.2,12.4,81.3-0.8
		C208.9,259.6,208.4,238.5,185.6,225.7z M176.9,230.9c17.9,10,18.3,26.5,0.9,36.9s-45.9,10.7-63.7,0.6
		c-17.8-10.1-18.3-26.5-0.9-36.9S159.1,220.9,176.9,230.9L176.9,230.9z"/>
	<path class="st43" d="M104.3,226.6c22.1-13.2,58.5-13.6,81.3-0.8c19.6,11,22.7,28.2,9,41.2l-10.7-3.7c10.6-10.2,8.3-23.8-7-32.4
		c-17.9-10-46.4-9.7-63.7,0.6c-1.7,1-3.3,2.2-4.8,3.4L98,231C99.9,229.4,102.1,227.9,104.3,226.6z"/>
	<path class="st48" d="M113.2,231.5c17.4-10.4,45.9-10.7,63.7-0.6c9.1,5.1,13.6,11.9,13.7,18.7c0,6.6-4.2,13.2-12.8,18.3
		c-17.4,10.4-45.9,10.7-63.7,0.6c-9.1-5.1-13.6-11.9-13.7-18.7C100.4,243.2,104.7,236.6,113.2,231.5z"/>
	<path class="st43" d="M113.2,231.5c1.4-0.8,2.8-1.5,4.2-2.1l-5.7,5h-1.1l-2.3,0.7C109.9,233.8,111.5,232.6,113.2,231.5z"/>
	<path class="st47" d="M173.4,228.9c-15.8-8.9-41.2-8.6-56.6,0.6s-15,23.9,0.8,32.8c15.8,8.9,41.2,8.6,56.6-0.6
		S189.2,237.8,173.4,228.9z M169.2,231.4c13.4,7.5,13.7,20,0.7,27.8c-13,7.8-34.5,8-48,0.5s-13.7-20-0.7-27.8
		S155.7,223.9,169.2,231.4L169.2,231.4z"/>
	<path class="st43" d="M116.8,229.5c15.4-9.2,40.7-9.5,56.6-0.6c13.7,7.7,15.8,19.7,6.2,28.7l-5.2-1.8c8.2-7.7,6.4-17.9-5.2-24.4
		c-13.4-7.5-34.9-7.3-48,0.5c-1.9,1.1-3.7,2.5-5.2,4.1l-5.2-1.8C112.5,232.3,114.6,230.8,116.8,229.5z"/>
	<path class="st48" d="M121.2,231.9c13.1-7.8,34.5-8,48-0.5c6.8,3.8,10.3,8.9,10.3,14c0,4.9-3.2,9.9-9.6,13.7
		c-13.1,7.8-34.5,8-48,0.5c-6.8-3.8-10.3-8.9-10.3-14C111.6,240.7,114.8,235.7,121.2,231.9z"/>
	<path class="st43" d="M116,235.8c1.5-1.5,3.3-2.9,5.1-4c0.6-0.4,1.3-0.8,2-1.1v1.9h-2.8L116,235.8z"/>
	<path class="st47" d="M165.6,229c-11.4-6.4-29.7-6.2-40.8,0.4s-10.9,17.2,0.6,23.6c11.5,6.4,29.7,6.2,40.8-0.4
		C177.3,246,177.1,235.4,165.6,229z M162.3,230.9c9.6,5.4,9.8,14.2,0.5,19.8s-24.6,5.7-34.1,0.3c-9.5-5.4-9.8-14.2-0.5-19.8
		C137.5,225.7,152.8,225.6,162.3,230.9L162.3,230.9z"/>
	<path class="st49" d="M105.2,226c-1.2,0.7-2,1.1-2,1.1c-22.7,13.6-22.2,35.2,1.2,48.3s60.7,12.7,83.4-0.8s22.2-35.2-1.2-48.3
		c-0.4-0.2-0.6-0.4-1.1-0.6c22.8,12.8,23.3,33.9,1.2,47.1s-58.5,13.6-81.3,0.8c-22.8-12.8-23.3-33.9-1.2-47.1
		C104.6,226.4,104.9,226.2,105.2,226z"/>
	<path class="st50" d="M204.5,255.5v-4.7c0,8.6-5.5,17.2-16.7,23.9c-22.7,13.6-60.1,14-83.4,0.8c-11.9-6.7-17.9-15.5-17.9-24.4v4.7
		c0,8.9,6,17.8,17.9,24.4c23.4,13.1,60.7,12.7,83.4-0.8C199,272.7,204.6,264.1,204.5,255.5z"/>
	<g>
		<path class="st43" d="M124.8,229.4c11.1-6.6,29.4-6.8,40.8-0.4c9.9,5.6,11.4,14.2,4.4,20.8l-4.1-1.4c5.9-5.5,4.7-12.8-3.6-17.4
			c-9.6-5.4-24.8-5.2-34.1,0.3c-1.4,0.8-2.7,1.8-3.8,2.9l-4.1-1.4C121.7,231.5,123.2,230.3,124.8,229.4z"/>
		<path class="st43" d="M195.8,273.5c5.9-5.5,8.8-11.8,8.8-18v-4.7c0,6.2-2.9,12.5-8.8,18V273.5z"/>
		<path class="st43" d="M173.3,237.7c-0.4-0.7-0.9-1.4-1.4-2c-0.7-0.7-1.4-1.4-2.2-2c-0.9-0.7-2-1.4-3-2c0.8,0.4,1.8,0.3,2.5-0.3
			c6.8,3.8,10.3,8.9,10.3,14c0,3.6-1.7,7.2-5.1,10.4c-2.4-0.8-4.7-3.4-4.7-5.7c2.5-2.2,4-5.5,4-8.8l0,0c0,3.4-1.4,6.6-4,8.8
			c0-0.1,0.2-0.3,0.2-0.4c2.8-2.6,4.3-5.6,4.4-8.6c0-0.6-0.1-1.1-0.2-1.7C173.9,238.9,173.6,238.2,173.3,237.7z M175.2,243.6
			c-0.2-0.2-0.3-0.5-0.5-0.7C174.9,243.2,175.1,243.4,175.2,243.6z"/>
		<path class="st43" d="M195.8,268.7c14.1-13.4,11-31-9.2-42.4c-0.4-0.2-0.6-0.4-1.1-0.6c19.7,11,22.7,28.3,8.9,41.3
			C195,267.7,195.3,268,195.8,268.7L195.8,268.7z"/>
	</g>
	<g>
		<g>
			<path class="st21" d="M93.8,258.4c-1.4,0.8-1.4,2.1,0,2.9c1.6,0.8,3.4,0.8,4.9,0c1.4-0.8,1.4-2.1,0-2.9
				C97.2,257.6,95.4,257.6,93.8,258.4z"/>
		</g>
	</g>
	<path class="st51" d="M99.1,259.5l-0.4-145.9c0,0.5-0.3,0.9-0.8,1.1c-1.3,0.7-2.7,0.7-4,0c-0.5-0.2-0.8-0.7-0.9-1.2l0.4,145.9
		c0.1,0.5,0.4,1,0.9,1.2c1.3,0.6,2.8,0.6,4,0C98.7,260.4,99,260,99.1,259.5z"/>
	<path class="st17" d="M98.7,130.3v3.1c-1.7,1.4-5.6-0.7-5.7-3.3v-4.7C94.8,127.3,96.7,128.9,98.7,130.3z"/>
	<path class="st43" d="M95.7,115.2c0.7,0,1.5-0.1,2.1-0.5c0.1,0,0.2-0.1,0.2-0.2v146.2c-0.7,0.3-1.6,0.5-2.4,0.4V115.2H95.7z"/>
	<path class="st51" d="M143.1,221.7l-0.4-145.9c0,0.5-0.3,0.9-0.8,1.1c-1.3,0.7-2.7,0.7-4,0c-0.5-0.2-0.8-0.7-0.9-1.2l0.4,145.9
		c0.1,0.5,0.4,1,0.9,1.2c1.3,0.6,2.8,0.6,4,0C142.8,222.7,143.1,222.2,143.1,221.7z"/>
	<path class="st43" d="M139.8,77.4c0.7,0,1.5-0.1,2.1-0.5c0.1,0,0.2-0.1,0.2-0.2v146.2c-0.7,0.3-1.6,0.5-2.4,0.4L139.8,77.4z"/>
	<path class="st52" d="M111.3,137.2c0.1-1.8,0.3-3.5,0.7-5.3c0.1-0.7,0.3-1.6,0.5-2.2c0.2-0.9,0.6-2,0.9-2.9
		c0.2-0.6,0.6-1.5,0.8-2.1c0.4-0.8,0.9-2,1.4-2.8c0.3-0.6,0.7-1.3,1.1-1.9c0.5-0.8,1.3-1.9,1.9-2.7c0.7-1,1.5-1.9,2.4-2.8
		c0.4-0.4,1-1.1,1.5-1.5c0.7-0.6,1.7-1.4,2.4-2c1.2-1,2.6-1.8,3.9-2.6c1-0.5,2.4-1.2,3.4-1.7c0.6-0.3,1.3-0.5,1.9-0.8
		c0.5-0.2,1.2-0.4,1.7-0.6c0.9-0.3,2.2-0.6,3.1-0.8c0.5-0.1,1.1-0.2,1.5-0.3s1-0.1,1.5-0.2c0.4,0,1-0.1,1.5-0.1
		c1.5-0.1,2.9-0.1,4.4,0.1c0.9,0.1,2.1,0.2,3,0.4c0.5,0.1,1.1,0.2,1.6,0.3s1.3,0.3,1.8,0.5c1,0.3,2.3,0.7,3.3,1.1
		c0.7,0.3,1.6,0.7,2.2,1c0.5,0.3,1.2,0.6,1.7,0.9c1,0.6,2.3,1.4,3.2,2c0.5,0.3,1.2,0.9,1.6,1.2c0.8,0.7,1.9,1.6,2.6,2.4
		c0.5,0.4,1,1.1,1.5,1.5c0.6,0.7,1.4,1.7,2,2.5c0.4,0.5,0.9,1.2,1.2,1.8c0.5,0.8,1.1,1.8,1.5,2.6c0.3,0.6,0.7,1.4,1,2
		c0.4,0.8,0.8,1.9,1.1,2.8c0.2,0.6,0.5,1.5,0.7,2.2c0.2,0.9,0.5,2,0.7,2.9c0.1,0.7,0.3,1.6,0.4,2.3c0.1,0.9,0.2,2.1,0.2,3
		c0,0.7,0,1.6,0,2.3c-0.1,1.5-0.2,3-0.5,4.5c-0.3,1.4-0.6,2.7-1,4c-0.6,1.6-1.2,3.2-2,4.7c-0.6,1.1-1.2,2.3-1.9,3.3
		c-0.4,0.6-1,1.5-1.5,2.1c-0.6,0.8-1.5,1.9-2.2,2.7c-1.2,1.4-2.5,2.8-3.9,4.1c-0.3,0.3-1.8,1.6-3.9,3.3c-3,2.4-5.9,4.3-8.2,5.8
		c-0.8,0.5-2,1.3-2.7,1.8c-0.6,0.4-1.5,1.1-2.1,1.5l-0.1,0.1c-0.1,0.1-0.1,0.2-0.2,0.2c-0.1,0.1-0.2,0.3-0.2,0.5
		c-0.3,0.8-0.3,1.6,0,2.3c0.1,0.2,0.1,0.3,0.2,0.5c0,0.1,0.1,0.1,0.1,0.2l0.1,0.1l0,0l0,0c1.4,1,2.7,1.9,4.9,3.3
		c2.1,1.4,2.9,1.9,3.1,2.1c0.5,0.3,1.2,0.8,1.7,1.1c0.6,0.4,1.4,1,2,1.4c0.5,0.4,1.2,0.9,1.8,1.4c0.7,0.6,1.6,1.3,2.3,1.9
		c0.5,0.5,1.3,1.1,1.8,1.6c0.7,0.7,1.7,1.7,2.4,2.4c0.5,0.6,1.2,1.3,1.7,1.9c0.7,0.9,1.7,2.1,2.3,3c1,1.4,1.9,2.9,2.7,4.4
		c0.7,1.2,1.2,2.5,1.7,3.8c0.5,1.4,1,2.9,1.3,4.3c0.3,1.7,0.5,3.3,0.6,5c0,0.6,0,1.3,0,1.9c0,0.5,0,1.2-0.1,1.7
		c0,0.6-0.1,1.3-0.2,1.9c-0.1,0.6-0.2,1.3-0.3,1.9c-0.2,1-0.4,2.2-0.7,3.2c-0.5,1.7-1.1,3.4-1.8,5.1c-0.2,0.5-0.6,1.2-0.8,1.7
		c-0.2,0.4-0.5,1-0.8,1.4c-0.3,0.5-0.7,1.2-1,1.7c-0.5,0.8-1.3,1.8-1.8,2.6c-0.4,0.5-0.9,1.1-1.3,1.6c-0.4,0.5-1,1.1-1.5,1.6
		c-0.7,0.7-1.7,1.5-2.4,2.2c-0.6,0.5-1.4,1.1-2,1.5c-0.4,0.3-0.9,0.6-1.3,0.9c-0.2,0.1-0.4,0.3-0.6,0.4c-9.3,5.6-24.6,5.7-34.1,0.3
		c-0.4-0.2-0.7-0.4-1.1-0.6c-0.6-0.4-1.4-1-2-1.4c-0.5-0.4-1.2-0.9-1.7-1.4c-0.7-0.6-1.7-1.5-2.4-2.2c-0.4-0.4-1-1-1.4-1.5
		c-2.3-2.7-4.2-5.7-5.6-8.9c-0.2-0.5-0.5-1.2-0.7-1.7s-0.4-1.1-0.5-1.5c-0.2-0.5-0.4-1.2-0.5-1.8c-0.3-0.9-0.5-2.2-0.7-3.2
		c-0.1-0.5-0.2-1.3-0.3-1.8c-0.1-0.6-0.1-1.3-0.2-1.9c0-1-0.1-2.3-0.1-3.3c0-1.5,0.2-3,0.5-4.5c0.6-3,1.6-6,3.1-8.7
		c0.6-1.1,1.2-2.3,1.9-3.3c0.4-0.6,1-1.5,1.5-2.1c0.6-0.8,1.5-1.9,2.2-2.7c1.2-1.4,2.5-2.8,3.9-4.1c0.3-0.3,1.8-1.6,3.9-3.3
		c3-2.4,5.9-4.3,8.2-5.8c0.6-0.4,2-1.3,2.7-1.8c0.6-0.4,1.5-1.1,2.1-1.5l0.1-0.1c0.1-0.1,0.1-0.2,0.2-0.2c0.1-0.1,0.2-0.3,0.2-0.5
		c0.3-0.8,0.3-1.6,0-2.3c-0.1-0.2-0.1-0.3-0.2-0.5c-0.1-0.1-0.2-0.2-0.3-0.4l0,0l0,0c-1.4-1-2.7-1.9-4.9-3.3
		c-2.2-1.4-2.9-1.9-3.1-2.1c-0.5-0.3-1.2-0.8-1.7-1.1c-0.6-0.4-1.4-1-2-1.4c-0.5-0.4-1.2-0.9-1.8-1.4c-0.7-0.6-1.6-1.3-2.3-1.9
		c-0.5-0.5-1.3-1.1-1.8-1.6c-0.7-0.7-1.7-1.7-2.4-2.4c-1-1.1-2.3-2.7-3.3-3.9c-0.8-1-1.5-2.1-2.2-3.2c-0.7-1.2-1.4-2.4-2-3.7
		c-0.7-1.6-1.3-3.2-1.8-4.8c-0.4-1.4-0.7-2.9-0.9-4.4c-0.1-0.8-0.2-1.8-0.2-2.5C111.3,139.3,111.3,138.1,111.3,137.2z M112.6,140.2
		c0,0.8,0.1,1.9,0.2,2.4c0.2,1.4,0.5,2.8,0.9,4.2c0.5,1.6,1.1,3.1,1.8,4.7c0.6,1.2,1.2,2.4,1.9,3.5c0.6,1.1,1.3,2.1,2.1,3.1
		c0.8,1.1,2.1,2.7,3.2,3.8c0.6,0.7,1.6,1.6,2.4,2.4c0.5,0.5,1.1,1,1.7,1.5l0.1,0.1c0.7,0.6,1.6,1.3,2.2,1.8c0.4,0.3,0.8,0.6,1.2,1
		c0.2,0.1,0.4,0.3,0.5,0.4c0.5,0.4,1.2,0.9,1.8,1.3l0.1,0.1c0.4,0.3,0.8,0.6,1.2,0.9l0.4,0.3c0.2,0.1,1,0.6,3.1,2
		c2.2,1.4,3.5,2.3,4.9,3.4l0.2,0.1l0.1,0.1c0.1,0.2,0.3,0.3,0.4,0.5c0.1,0.2,0.2,0.5,0.3,0.7c0.4,1,0.4,2.1,0,3.1
		c-0.1,0.2-0.2,0.5-0.3,0.7c-0.1,0.1-0.2,0.2-0.2,0.4c0,0.1-0.1,0.1-0.2,0.2l-0.1,0.1l-0.1,0.1c-0.3,0.2-1.3,1-2.2,1.5
		c-0.7,0.5-2.1,1.4-2.7,1.8c-2.3,1.5-5.2,3.4-8.2,5.8c-2.1,1.6-3.5,3-3.8,3.2c-1.4,1.3-2.6,2.6-3.9,4c-0.8,0.9-1.8,2.2-2.1,2.7
		c-0.3,0.4-0.7,1-1.1,1.6c-0.1,0.2-0.2,0.4-0.3,0.5c-0.7,1-1.3,2.1-1.9,3.2c-1.4,2.6-2.4,5.5-2.9,8.4c-0.3,1.4-0.4,2.8-0.5,4.2
		c0,0.8,0,1.9,0.1,3.2c0,0.5,0.1,1.3,0.2,1.8l0,0c0.1,0.5,0.2,1.2,0.3,1.7c0.3,1.4,0.5,2.4,0.7,3.1c0.1,0.5,0.3,1.2,0.5,1.7
		c0.1,0.3,0.2,0.7,0.3,1c0.1,0.2,0.1,0.3,0.2,0.5c0.1,0.4,0.4,1,0.7,1.6c1.4,3.1,3.2,6,5.4,8.6c0.4,0.5,0.9,1.1,1.3,1.4
		c0.6,0.6,1.5,1.5,2.3,2.2c0.5,0.4,1.1,0.9,1.7,1.3c0.6,0.4,1.4,1,2,1.4c0.3,0.2,0.7,0.5,1,0.7c5,2.6,10.5,3.9,16.1,3.8l0,0
		c5.9,0.1,11.6-1.3,16.7-4.2c0.2-0.1,0.4-0.3,0.6-0.4c0.1-0.1,0.3-0.2,0.4-0.3c0.3-0.2,0.6-0.4,0.9-0.6c0.6-0.4,1.4-1,1.9-1.5
		c0.8-0.7,1.7-1.5,2.3-2.1c0.4-0.4,1-1,1.4-1.5l0.2-0.2c0.4-0.4,0.8-0.9,1.1-1.3c0.4-0.6,1.2-1.7,1.8-2.5c0.3-0.5,0.7-1.1,1-1.6
		c0.1-0.1,0.2-0.3,0.2-0.4c0.2-0.3,0.4-0.7,0.5-0.9c0.3-0.6,0.6-1.2,0.8-1.7c0.7-1.6,1.3-3.2,1.7-4.9c0.2-0.7,0.4-1.7,0.7-3.1
		c0.1-0.4,0.2-1.1,0.3-1.8c0.1-0.6,0.1-1.3,0.2-1.8c0-0.3,0-0.7,0.1-1.1c0-0.2,0-0.4,0-0.5c0-0.4,0-1.1,0-1.8
		c-0.1-1.6-0.3-3.2-0.6-4.8c-0.3-1.4-0.7-2.8-1.2-4.2c-0.5-1.2-1-2.5-1.6-3.6c-0.8-1.5-1.7-2.9-2.6-4.3c-0.6-0.8-1.5-2-2.3-3
		c-0.4-0.4-0.9-1-1.3-1.5l-0.3-0.4c-0.7-0.7-1.7-1.7-2.3-2.4c-0.5-0.5-1.1-1-1.6-1.5l-0.1-0.1c-0.7-0.6-1.6-1.3-2.2-1.8
		c-0.4-0.3-0.8-0.6-1.2-1c-0.2-0.1-0.4-0.3-0.5-0.4c-0.5-0.4-1.2-0.9-1.8-1.3l-0.1-0.1c-0.4-0.3-0.8-0.6-1.2-0.8l-0.4-0.3
		c-0.2-0.2-1-0.7-3.1-2c-2.2-1.4-3.5-2.3-4.9-3.4l-0.1-0.1l-0.1-0.1c-0.1-0.1-0.2-0.2-0.2-0.2c-0.1-0.1-0.1-0.2-0.2-0.3
		c-0.1-0.2-0.2-0.4-0.3-0.7c-0.4-1-0.4-2.1,0-3.1c0.1-0.2,0.2-0.5,0.3-0.7s0.2-0.3,0.2-0.4c0-0.1,0.1-0.1,0.1-0.2l0.1-0.1l0,0l0,0
		l0.1-0.1c0.3-0.2,1.3-1,2.2-1.5c0.7-0.5,2-1.3,2.7-1.8c2.3-1.5,5.2-3.4,8.2-5.7c2.1-1.6,3.5-3,3.8-3.2c1.4-1.3,2.6-2.6,3.9-4
		c0.8-0.9,1.8-2.2,2.1-2.7c0.3-0.4,0.7-1,1.1-1.6c0.1-0.2,0.2-0.4,0.3-0.5c0.7-1,1.3-2.1,1.9-3.2c0.7-1.5,1.4-3,1.9-4.6
		c0.4-1.2,0.8-2.5,1-3.8c0.3-1.4,0.4-2.8,0.5-4.3c0-0.6,0-1.6,0-2.3c-0.1-1.1-0.1-2.2-0.2-2.9c-0.1-0.5-0.2-1.5-0.3-2.2
		s-0.4-1.9-0.6-2.8c-0.2-0.5-0.4-1.4-0.6-2.1c-0.3-0.9-0.7-1.9-1-2.7c-0.1-0.2-0.2-0.4-0.3-0.6c-0.2-0.5-0.5-1-0.7-1.4
		c-0.5-1-1.1-1.9-1.5-2.6c-0.2-0.3-0.7-1.1-1.2-1.7c-0.3-0.4-1.2-1.6-1.9-2.4l-0.2-0.2c-0.4-0.4-0.9-1-1.2-1.3
		c-1.1-1-1.9-1.8-2.6-2.3c-0.5-0.4-1.1-0.9-1.5-1.2c-0.9-0.6-2.2-1.4-3.1-2c-0.2-0.1-0.3-0.2-0.5-0.3c-0.4-0.2-0.8-0.4-1.1-0.6
		c-0.9-0.4-1.6-0.8-2.1-0.9c-1-0.4-2.3-0.8-3.2-1.1c-0.5-0.1-1.1-0.3-1.6-0.4h-0.1c-0.4-0.1-1.1-0.2-1.5-0.3
		c-0.7-0.1-1.9-0.3-2.9-0.4c-0.8-0.1-1.7-0.1-2.5-0.1s-1.4,0-1.7,0h-0.4c-0.3,0-0.7,0.1-1,0.1s-0.7,0.1-1,0.1l-0.4,0.1
		c-0.4,0.1-1,0.2-1.4,0.2c-0.8,0.2-1.9,0.4-3,0.7c-0.5,0.1-1.1,0.3-1.6,0.5l-0.3,0.1c-0.5,0.2-1.1,0.4-1.6,0.6
		c-1.1,0.5-2.4,1.2-3.3,1.7c-1.3,0.7-2.6,1.6-3.8,2.5c-0.7,0.5-1.6,1.3-2.3,2c-0.3,0.3-0.7,0.7-1.1,1.1c-0.1,0.1-0.2,0.2-0.4,0.4
		c-0.8,0.8-1.6,1.7-2.2,2.6c-0.3,0.5-1.2,1.7-1.8,2.6c-0.3,0.4-0.7,1.1-1.1,1.8c-0.4,0.7-0.9,1.7-1.3,2.7c-0.3,0.6-0.6,1.4-0.8,2
		c-0.3,0.9-0.7,2-0.9,2.8c-0.2,0.7-0.4,1.6-0.5,2.1c-0.3,1.7-0.6,3.4-0.6,5.1C112.5,138.1,112.5,139.3,112.6,140.2L112.6,140.2z"/>
	<path class="st52" d="M111.3,137.2c0.1-1.8,0.3-3.5,0.7-5.3c0.1-0.7,0.3-1.6,0.5-2.2c0.2-0.9,0.6-2,0.9-2.9
		c0.2-0.6,0.6-1.5,0.8-2.1c0.4-0.8,0.9-2,1.4-2.8c0.3-0.6,0.7-1.3,1.1-1.9c0.5-0.8,1.3-1.9,1.9-2.7c0.7-1,1.5-1.9,2.4-2.8
		c0.4-0.4,1-1.1,1.5-1.5c0.7-0.6,1.7-1.4,2.4-2c1.2-1,2.6-1.8,3.9-2.6c1-0.5,2.4-1.2,3.4-1.7c0.6-0.3,1.3-0.5,1.9-0.8
		c0.5-0.2,1.2-0.4,1.7-0.6c0.9-0.3,2.2-0.6,3.1-0.8c0.5-0.1,1.1-0.2,1.5-0.3s1-0.1,1.5-0.2c0.4,0,1-0.1,1.5-0.1
		c1.5-0.1,2.9-0.1,4.4,0.1c0.9,0.1,2.1,0.2,3,0.4c0.5,0.1,1.1,0.2,1.6,0.3s1.3,0.3,1.8,0.5c1,0.3,2.3,0.7,3.3,1.1
		c0.7,0.3,1.6,0.7,2.2,1c0.5,0.3,1.2,0.6,1.7,0.9c1,0.6,2.3,1.4,3.2,2c0.5,0.3,1.2,0.9,1.6,1.2c0.8,0.7,1.9,1.6,2.6,2.4
		c0.5,0.4,1,1.1,1.5,1.5c0.6,0.7,1.4,1.7,2,2.5c0.4,0.5,0.9,1.2,1.2,1.8c0.5,0.8,1.1,1.8,1.5,2.6c0.3,0.6,0.7,1.4,1,2
		c0.4,0.8,0.8,1.9,1.1,2.8c0.2,0.6,0.5,1.5,0.7,2.2c0.2,0.9,0.5,2,0.7,2.9c0.1,0.7,0.3,1.6,0.4,2.3c0.1,0.9,0.2,2.1,0.2,3
		c0,0.7,0,1.6,0,2.3c-0.1,1.5-0.2,3-0.5,4.5c-0.3,1.4-0.6,2.7-1,4c-0.6,1.6-1.2,3.2-2,4.7c-0.6,1.1-1.2,2.3-1.9,3.3
		c-0.4,0.6-1,1.5-1.5,2.1c-0.6,0.8-1.5,1.9-2.2,2.7c-1.2,1.4-2.5,2.8-3.9,4.1c-0.3,0.3-1.8,1.6-3.9,3.3c-3,2.4-5.9,4.3-8.2,5.8
		c-0.8,0.5-2,1.3-2.7,1.8c-0.6,0.4-1.5,1.1-2.1,1.5l-0.1,0.1h0.1l0,0c0,0-0.1,0-0.1,0.1c-0.1,0.1-0.1,0.1-0.2,0.2
		c-0.1,0.1-0.2,0.3-0.2,0.5c-0.1,0.4-0.2,0.8-0.2,1.2s0.1,0.8,0.2,1.2c0.1,0.2,0.1,0.3,0.2,0.5c0,0.1,0.1,0.1,0.1,0.2l0.1,0.1l0,0
		l0,0c1.4,1,2.7,1.9,4.9,3.3c2.1,1.4,2.9,1.9,3.1,2.1c0.5,0.3,1.2,0.8,1.7,1.1c0.6,0.4,1.4,1,2,1.4c0.5,0.4,1.2,0.9,1.8,1.4
		c0.7,0.6,1.6,1.3,2.3,1.9c0.5,0.5,1.3,1.1,1.8,1.6c0.7,0.7,1.7,1.7,2.4,2.4c0.5,0.6,1.2,1.3,1.7,1.9c0.7,0.9,1.7,2.1,2.3,3
		c1,1.4,1.9,2.9,2.7,4.4c0.7,1.2,1.2,2.5,1.7,3.8c0.5,1.4,1,2.9,1.3,4.3c0.3,1.7,0.5,3.3,0.6,5c0,0.6,0,1.3,0,1.9
		c0,0.5,0,1.2-0.1,1.7c0,0.6-0.1,1.3-0.2,1.9c-0.1,0.6-0.2,1.3-0.3,1.9c-0.2,1-0.4,2.2-0.7,3.2c-0.5,1.7-1.1,3.4-1.8,5.1
		c-0.2,0.5-0.6,1.2-0.8,1.7c-0.2,0.4-0.5,1-0.8,1.4c-0.3,0.5-0.7,1.2-1,1.7c-0.5,0.8-1.3,1.8-1.8,2.6c-0.4,0.5-0.9,1.1-1.3,1.6
		c-0.4,0.5-1,1.1-1.5,1.6c-0.7,0.7-1.7,1.5-2.4,2.2c-0.6,0.5-1.4,1.1-2,1.5c-0.4,0.3-0.9,0.6-1.3,0.9c-0.2,0.1-0.4,0.3-0.6,0.4
		c-9.3,5.6-24.6,5.7-34.1,0.3c-0.4-0.2-0.7-0.4-1.1-0.6c-0.6-0.4-1.4-1-2-1.4c-0.5-0.4-1.2-0.9-1.7-1.4c-0.7-0.6-1.7-1.5-2.4-2.2
		c-0.4-0.4-1-1-1.4-1.5c-2.3-2.7-4.2-5.7-5.6-8.9c-0.2-0.5-0.5-1.2-0.7-1.7s-0.4-1.1-0.5-1.5c-0.2-0.5-0.4-1.2-0.5-1.8
		c-0.3-0.9-0.5-2.2-0.7-3.2c-0.1-0.5-0.2-1.3-0.3-1.8c-0.1-0.6-0.1-1.3-0.2-1.9c0-1-0.1-2.3-0.1-3.3c0-1.5,0.2-3,0.5-4.5
		c0.6-3,1.6-6,3.1-8.7c0.6-1.1,1.2-2.3,1.9-3.3c0.4-0.6,1-1.5,1.5-2.1c0.6-0.8,1.5-1.9,2.2-2.7c1.2-1.4,2.5-2.8,3.9-4.1
		c0.3-0.3,1.8-1.6,3.9-3.3c3-2.4,5.9-4.3,8.2-5.8c0.6-0.4,2-1.3,2.7-1.8c0.6-0.4,1.5-1.1,2.1-1.5l0.1-0.1c0.1-0.1,0.1-0.2,0.2-0.2
		c0.1-0.1,0.2-0.3,0.2-0.5c0.3-0.8,0.3-1.6,0-2.3c-0.1-0.2-0.1-0.3-0.2-0.5c-0.1-0.1-0.2-0.2-0.3-0.4l0,0l0,0
		c-1.4-1-2.7-1.9-4.9-3.3c-2.2-1.4-2.9-1.9-3.1-2.1c-0.5-0.3-1.2-0.8-1.7-1.1c-0.6-0.4-1.4-1-2-1.4c-0.5-0.4-1.2-0.9-1.8-1.4
		c-0.7-0.6-1.6-1.3-2.3-1.9c-0.5-0.5-1.3-1.1-1.8-1.6c-0.7-0.7-1.7-1.7-2.4-2.4c-1-1.1-2.3-2.7-3.3-3.9c-0.8-1-1.5-2.1-2.2-3.2
		c-0.7-1.2-1.4-2.4-2-3.7c-0.7-1.6-1.3-3.2-1.8-4.8c-0.4-1.4-0.7-2.9-0.9-4.4c-0.1-0.8-0.2-1.8-0.2-2.5
		C111.3,139.3,111.3,138.1,111.3,137.2z"/>
	<path class="st53" d="M172.6,155.9c-0.1,0.2-0.2,0.3-0.3,0.5c-0.4,0.5-0.8,1.1-1.1,1.6c-0.4,0.5-1.4,1.8-2.1,2.7
		c-1.2,1.4-2.5,2.7-3.9,4c-0.3,0.3-1.7,1.6-3.8,3.2c-3,2.3-5.8,4.2-8.2,5.7c-0.8,0.5-2,1.3-2.7,1.8c-0.8,0.6-1.9,1.3-2.2,1.5
		l-0.1,0.1l0,0l0,0l-0.1,0.1c-0.1,0.1-0.1,0.1-0.1,0.2c0,0-0.1,0.2-0.2,0.4c-0.1,0.2-0.2,0.5-0.3,0.7c-0.2,0.5-0.3,1-0.3,1.6
		c0,0.3,0,33.4,0.1,33.6h-3.8c0-0.2,0.1-33.4,0.1-33.6c0-0.5-0.1-1.1-0.3-1.6c-0.1-0.2-0.2-0.5-0.3-0.7s-0.2-0.4-0.4-0.5l-0.1-0.1
		l-0.2-0.1c-1.4-1.1-2.7-1.9-4.9-3.4c-2.1-1.4-2.9-1.9-3.1-2l-0.4-0.3c-0.4-0.3-0.9-0.6-1.2-0.9l-0.1-0.1c-0.6-0.4-1.3-0.9-1.8-1.3
		c-0.2-0.1-0.3-0.2-0.5-0.4c-0.4-0.3-0.9-0.7-1.2-1c-0.6-0.5-1.6-1.3-2.2-1.8l-0.1-0.1c-0.5-0.5-1.2-1-1.7-1.5
		c-0.8-0.8-1.7-1.7-2.4-2.4c-1.1-1.1-2.3-2.7-3.2-3.8c-0.7-1-1.4-2-2.1-3.1c-0.7-1.1-1.3-2.3-1.9-3.5c-0.2-0.6-0.5-1.1-0.7-1.7
		c1.9,2,4.1,3.7,6.5,5c13.6,7.6,35.4,7.4,48.6-0.5c2.4-1.4,4.5-3.1,6.3-5.2c0.1-0.2,0.1-0.3,0.2-0.5c-0.5,1.4-1.1,2.7-1.8,4.1
		C173.9,153.8,173.3,154.8,172.6,155.9z"/>
	<path class="st54" d="M122.3,236.3c6.2,3.6,14.3,5.5,23.1,5.5c8.7,0,16.9-2,23.1-5.5c5.1-2.9,8.3-6.6,9.3-10.6
		c0,0.4-0.1,0.7-0.1,0.9c-0.3,1.4-0.5,2.4-0.7,3.1c-0.4,1.7-1,3.3-1.7,4.9c-0.2,0.4-0.5,1-0.8,1.7c-0.1,0.3-0.3,0.6-0.5,0.9
		c-0.1,0.2-0.2,0.3-0.2,0.4c-0.3,0.5-0.6,1.1-1,1.6c-0.5,0.9-1.4,2-1.8,2.5c-0.3,0.4-0.7,0.9-1.1,1.3l-0.2,0.2
		c-0.4,0.5-1,1.1-1.4,1.5c-0.6,0.6-1.6,1.5-2.3,2.1c-0.5,0.5-1.3,1-1.9,1.5c-0.2,0.2-0.6,0.4-0.9,0.6c-0.1,0.1-0.3,0.2-0.4,0.3
		c-0.2,0.1-0.4,0.3-0.6,0.4c-5.1,2.8-10.9,4.3-16.7,4.2l0,0c-5.6,0.1-11.2-1.2-16.1-3.8c-0.3-0.2-0.7-0.5-1-0.7
		c-0.6-0.4-1.4-0.9-2-1.4c-0.5-0.4-1.2-0.9-1.7-1.3c-0.8-0.7-1.7-1.6-2.3-2.2c-0.4-0.4-0.9-0.9-1.3-1.4c-2.2-2.6-4.1-5.5-5.4-8.6
		c-0.3-0.6-0.5-1.2-0.7-1.6c-0.1-0.1-0.1-0.3-0.2-0.5c-0.1-0.4-0.3-0.7-0.3-1c-0.2-0.5-0.4-1.2-0.5-1.7c-0.2-0.7-0.4-1.7-0.7-3.1
		c0-0.2-0.1-0.4-0.1-0.7C114.2,229.8,117.3,233.5,122.3,236.3z"/>
	<path class="st21" d="M113,224.8L113,224.8c0,0.3,0.1,0.7,0.1,1.1c-0.3-1-0.4-1.9-0.4-2.9c0-0.3,0-0.6,0-0.9c0,0.3,0,0.6,0,0.9
		C112.9,223.6,112.9,224.3,113,224.8z"/>
	<path class="st55" d="M168.5,236.3c-6.2,3.6-14.4,5.5-23.1,5.5c-8.7,0-16.9-2-23.1-5.5c-4.9-2.9-8.1-6.5-9.1-10.4
		c-0.1-0.4-0.1-0.7-0.1-1l0,0c-0.1-0.5-0.1-1.2-0.2-1.8c0-0.3,0-0.6,0-0.9c0.4-4.7,3.8-9.2,9.6-12.6c6.2-3.6,14.4-5.5,23.1-5.5
		c8.7,0,16.9,2,23.1,5.5c5.8,3.3,9.1,7.7,9.5,12.4c0,0.4,0,0.8,0,1.1c0,0.5-0.1,1.3-0.2,1.8c0,0.3-0.1,0.6-0.1,0.8
		C176.7,229.7,173.5,233.4,168.5,236.3z"/>
	<path class="st53" d="M147.2,194l22.7,19.8c2.6,2.2,2.8,6.1,0.6,8.6c-0.2,0.2-0.3,0.4-0.5,0.5c-11.5,10.3-33.8,10.2-48-0.1
		c-2.8-2-3.4-5.9-1.3-8.7c0.3-0.4,0.6-0.7,0.9-1l21.8-19.1H147.2z"/>
	<path class="st54" d="M112.7,142.6c-0.1-0.6-0.2-1.6-0.2-2.4c0-0.9,0-2.1,0-2.9c0.1-1.3,0.2-2.6,0.4-3.9c1.9-2.8,4.5-5.1,7.4-6.7
		c13.2-7.9,35-8.1,48.6-0.5c3.4,1.8,6.3,4.3,8.4,7.5c0.1,0.5,0.1,1,0.2,1.3c0.1,0.7,0.2,1.8,0.2,2.9c0,0.7,0,1.6,0,2.3
		c-0.1,1.4-0.2,2.9-0.5,4.3c-0.2,1.3-0.6,2.6-1,3.8c-0.1,0.3-0.2,0.7-0.4,1c-1.8,2.1-3.9,3.8-6.3,5.2c-13.2,7.9-35,8.1-48.6,0.5
		c-2.4-1.3-4.6-3-6.5-5c-0.4-1-0.8-2.1-1-2.9C113.2,145.5,112.9,144.1,112.7,142.6z"/>
	<g>
		<path class="st45" d="M128.5,251c0.1,0,0.1,0.1,0.2,0.1c2.4,1.3,5.1,2.3,7.8,2.9c-2.3-2-3.8-7.4-3.7-15.7
			c0.1-14.1,7.2-37.4,10.8-52.1c-0.5-0.1-1.1-0.3-1.5-0.6l0,0c-6.9,13.5-20.2,34.5-20.4,48.5C121.4,242.3,124.1,248.2,128.5,251
			L128.5,251z"/>
	</g>
	<path class="st45" d="M136,117.8L136,117.8c1.4,0.8,2.8,1.3,4.3,1.6c-4.6,11.2-7.9,26.5-7.8,38.6c0.2,13.6,7.3,16.6,11,20.7
		c0.8,0.9,0.8,4,0,7.4c-0.5-0.1-1.1-0.3-1.5-0.6l0,0c1.6-3,1.5-6.2,0-7.4c-7-5.3-20.3-10.7-20.6-24.4
		C121.1,141.6,127.2,127.5,136,117.8z"/>
	<path class="st45" d="M149.2,185.2c-1.8-3-1.8-5.8-0.1-7.3c0,0,0,0-0.1,0.1s-0.2,0.2-0.2,0.3c-0.1,0.1-0.2,0.3-0.2,0.5
		c-0.1,0.2-0.1,0.4-0.1,0.6c-0.1,0.4-0.1,0.8,0,1.2c0,0.2,0.1,0.4,0.1,0.6c0.1,0.2,0.1,0.3,0.2,0.5c0.1,0.1,0.1,0.2,0.2,0.3
		c0,0,0,0,0.1,0.1c0.7,0.5,0.9,0.7,2.3,1.6c0.7,0.5,1.1,0.7,2.6,1.7c1.2,0.8,1.2,0.8,3,2c1.3,0.9,1.3,0.9,3.5,2.4
		c1.5,1.1,1.5,1.1,3.9,3c1.6,1.4,1.7,1.5,4,3.8c1.4,1.4,2.7,3,3.9,4.6c1.3,1.7,2.4,3.5,3.4,5.4c1,2,1.9,4.1,2.5,6.2
		c0.6,2.3,1,4.6,1.1,6.9c0,1.2,0,2.4-0.1,3.6c-0.3,4.7-1.5,9.2-3.6,13.4c-1,2.1-2.3,4.1-3.7,6c-0.7,1-1.5,1.9-2.4,2.8
		c-0.7,0.8-1.5,1.5-2.3,2.1c5.4-4.9,7.2-13.6,4.7-22.7C170,217.6,170,217.6,149.2,185.2z"/>
	<path class="st51" d="M153.9,277.8l-0.4-145.9c0,0.5-0.3,0.9-0.8,1.1c-1.3,0.7-2.7,0.7-4,0c-0.5-0.2-0.8-0.7-0.9-1.2l0.4,145.9
		c0.1,0.5,0.4,1,0.9,1.2c1.3,0.6,2.8,0.6,4,0C153.5,278.8,153.8,278.3,153.9,277.8z"/>
	<path class="st17" d="M153.5,147.9c-0.7,1.5-4.8,1.6-5.7,0.3v-4.7c1.9,0,3.8-0.1,5.7-0.3V147.9z"/>
	<path class="st43" d="M150.5,133.5c0.7,0,1.5-0.1,2.1-0.5c0.1,0,0.2-0.1,0.2-0.2V279c-0.7,0.3-1.6,0.5-2.4,0.4L150.5,133.5z"/>
	<path class="st56" d="M185.2,88.5c-22.8-12.8-59.2-12.4-81.3,0.8s-21.6,34.3,1.2,47.1c22.8,12.8,59.2,12.4,81.3-0.8
		C208.5,122.4,208,101.2,185.2,88.5z M154.2,107c5.2,2.9,5.3,7.7,0.3,10.7s-13.3,3.1-18.5,0.2s-5.3-7.7-0.3-10.7
		S149.1,104.1,154.2,107z"/>
	<path class="st50" d="M204.1,111v-4.7c0,8.6-5.5,17.2-16.7,23.9c-22.7,13.6-60.1,14-83.4,0.8c-11.9-6.7-17.9-15.5-17.9-24.4v4.7
		c0,8.9,6,17.8,17.9,24.4c23.4,13.1,60.7,12.7,83.4-0.8C198.6,128.2,204.2,119.6,204.1,111z"/>
	
		<ellipse transform="matrix(1 -2.834912e-03 2.834912e-03 1 -0.2977 0.4117)" class="st47" cx="145.1" cy="105.2" rx="57.5" ry="33.3"/>
	<path class="st49" d="M101.3,83.6c1.8-1.2,3.7-2.3,5.7-3.3c0.6-0.3,1.4-0.7,2-1c0.5-0.2,1.1-0.5,1.6-0.7c0.4-0.2,1-0.4,1.5-0.6
		c-2.9,1.2-5.6,2.5-8.3,4.1c-22,13.2-21.5,34.3,1.3,47s59.2,12.4,81.3-0.8c21.2-12.7,21.6-32.6,1.5-45.5l0,0
		c21.8,13.2,21.8,34.1-0.4,47.4c-22.7,13.6-60.1,14-83.4,0.8C81.1,118.2,80.1,97.2,101.3,83.6z M102,83.2c0.3-0.2,0.5-0.3,0.8-0.5
		C102.5,82.9,102.2,83.1,102,83.2z M101.1,83.8c-0.1,0-0.1,0.1-0.2,0.1C100.9,83.9,101,83.8,101.1,83.8z"/>
	<g>
		<path class="st57" d="M185.2,81.2c19.6,11,22.7,28.2,9,41.2l-80.4-45.1C135.8,69,165.6,70.2,185.2,81.2z"/>
		<path class="st43" d="M186.7,82.1c19.8,11.3,22.8,28.8,8.9,42l-1.3-1.7C207.5,109.8,205,93.1,186.7,82.1z"/>
		<path class="st43" d="M195.6,128.8c5.7-5.5,8.6-11.7,8.6-17.8v-4.7c0,6.2-2.8,12.4-8.6,17.8V128.8L195.6,128.8z"/>
	</g>
</g>
</svg>
